<?xml version="1.0" encoding="utf-8"?>
<!-- Svg Vector Icons : http://www.onlinewebfonts.com/icon -->
<!DOCTYPE svg PUBLIC "-//W3C//DTD SVG 1.1//EN" "http://www.w3.org/Graphics/SVG/1.1/DTD/svg11.dtd">
<svg version="1.1" xmlns="http://www.w3.org/2000/svg" xmlns:xlink="http://www.w3.org/1999/xlink" x="0px" y="0px" viewBox="0 0 256 256" enable-background="new 0 0 256 256" xml:space="preserve">
<metadata> Svg Vector Icons : http://www.onlinewebfonts.com/icon </metadata>
<g><g><path fill="#000000" d="M54.2,246h147.5c24.4,0,44.3-19.8,44.3-44.2V54.2c0-24.4-19.8-44.2-44.2-44.2h-66.9c5.1,8.8,7.9,18.9,7.9,29.5h59c8.2,0,14.7,6.6,14.7,14.7v147.5c0,8.1-6.6,14.7-14.7,14.7H54.2c-8.2,0-14.7-6.6-14.7-14.7v-33.2L10,146.4v55.3C10,226.2,29.8,246,54.2,246L54.2,246z M74.9,139.8c2.6,1.9,5.7,3,8.8,3c2.2,0,4.5-0.5,6.6-1.6c5-2.5,8.2-7.6,8.2-13.2v-14.1v-0.6c46.7,0,86.2,31.1,98.9,73.8c2.8-9.4,4.3-19.2,4.3-29.5c0-57-46.2-103.3-103.2-103.3V39.5c0-5.6-3.2-10.7-8.2-13.2c-2.1-1-4.4-1.6-6.6-1.6c-3.1,0-6.3,1-8.8,3l-59,44.2c-3.7,2.8-5.9,7.2-5.9,11.8c0,4.6,2.2,9,5.9,11.8L74.9,139.8L74.9,139.8z"/></g></g>
</svg>