<?xml version="1.0" encoding="utf-8"?>
<!-- Svg Vector Icons : http://www.onlinewebfonts.com/icon -->
<!DOCTYPE svg PUBLIC "-//W3C//DTD SVG 1.1//EN" "http://www.w3.org/Graphics/SVG/1.1/DTD/svg11.dtd">
<svg version="1.1" xmlns="http://www.w3.org/2000/svg" xmlns:xlink="http://www.w3.org/1999/xlink" x="0px" y="0px" viewBox="0 0 256 256" enable-background="new 0 0 256 256" xml:space="preserve">
<metadata> Svg Vector Icons : http://www.onlinewebfonts.com/icon </metadata>
<g><g><path fill="#000000" d="M246,44.3c0,8-6.5,14.4-14.4,14.4H25c-8,0-14.4-6.5-14.4-14.4l0,0c0-8,6.5-14.4,14.4-14.4h206.6C239.5,29.9,246,36.3,246,44.3L246,44.3z"/><path fill="#000000" d="M246,128c0,8-6.5,14.4-14.4,14.4H25c-8,0-14.4-6.5-14.4-14.4l0,0c0-8,6.5-14.4,14.4-14.4h206.6C239.5,113.5,246,120,246,128L246,128z"/><path fill="#000000" d="M245.5,211.7c0,8-6.5,14.4-14.4,14.4H24.4c-8,0-14.4-6.5-14.4-14.4l0,0c0-8,6.5-14.4,14.4-14.4H231C239,197.3,245.5,203.7,245.5,211.7L245.5,211.7z"/></g></g>
</svg>