<?xml version="1.0" encoding="utf-8"?>
<!-- Svg Vector Icons : http://www.onlinewebfonts.com/icon -->
<!DOCTYPE svg PUBLIC "-//W3C//DTD SVG 1.1//EN" "http://www.w3.org/Graphics/SVG/1.1/DTD/svg11.dtd">
<svg version="1.1" xmlns="http://www.w3.org/2000/svg" xmlns:xlink="http://www.w3.org/1999/xlink" x="0px" y="0px" viewBox="0 0 256 256" enable-background="new 0 0 256 256" xml:space="preserve">
<metadata> Svg Vector Icons : http://www.onlinewebfonts.com/icon </metadata>
<g><g><g><path fill="#000000" d="M122.2,10.2c-8.6,1.2-14.2,3-20.4,6.2c-12.9,6.7-22.9,18.2-27.7,31.8c-3.1,8.9-3.9,16.7-3,30.4c1.6,25.1,7.4,45.7,16.9,60.3l2.6,4l-10.3,4.7c-45.9,20.8-44.9,20.3-47.8,23.2c-4.6,4.6-7.1,11-7.1,18.2c0,10.1,7.1,25.2,19.4,41.6c7.4,9.9,11.7,12.4,24.3,14.3c4.4,0.7,11.9,0.8,51.5,1c54.1,0.2,62.5,0,73.5-2.8c8.6-2.1,11.4-4.3,18-13.8c8.7-12.7,13.7-21.5,16.6-29.6c3.3-9.3,2.6-18.1-2-25.2c-3.4-5.3-4-5.7-33.5-19.1c-14.9-6.8-27.2-12.4-27.3-12.5c-0.1-0.1,1-2.1,2.5-4.3c8-12.2,13.5-30,16-50.9c0.3-2.5,0.7-9.1,0.8-14.6c0.2-8.2,0.1-10.9-0.5-14.9c-2-11.7-7-21.8-14.9-30.2c-9-9.4-20.5-15.5-33.1-17.4C132.4,10,125.2,9.8,122.2,10.2z M137.5,26.6c11.9,2.9,22.2,11.2,27.5,22.2c3.4,7.1,4.1,10.5,4.1,20c0,13-1.4,23.9-4.7,36.3c-3.9,14.9-9.6,26-17.4,33.7c-3.3,3.3-5,4.5-8.2,6.1c-18.2,8.8-36.1-4.1-45.7-33.1c-6.2-18.6-8.5-44.6-5.1-56.2c4.4-14.8,16.3-26,31-29.2C123.7,25.4,132.7,25.5,137.5,26.6z M105,156.1c8,4.7,14.7,6.3,24.9,5.9c9.1-0.3,15.2-2.1,22.5-6.6l1.7-1l19.6,8.9c26.7,12.2,26.1,11.9,28.6,14.6c4.6,5.1,3.5,10.8-4.6,24.7c-3.5,5.9-6.6,9.4-10,11.3l-2.5,1.4h-56.8H71.4l-2.3-1c-3.5-1.6-6.9-5.4-10.8-12.1c-5.4-9.2-6.9-12.8-6.9-17.3c0-3.3,0.1-3.8,1.4-5.7c0.8-1.1,2.3-2.7,3.3-3.4c1.7-1.2,44.6-21.2,45.7-21.3C102.1,154.5,103.5,155.2,105,156.1z"/></g></g></g>
</svg>