<?xml version="1.0" encoding="utf-8"?>
<!-- Svg Vector Icons : http://www.onlinewebfonts.com/icon -->
<!DOCTYPE svg PUBLIC "-//W3C//DTD SVG 1.1//EN" "http://www.w3.org/Graphics/SVG/1.1/DTD/svg11.dtd">
<svg version="1.1" xmlns="http://www.w3.org/2000/svg" xmlns:xlink="http://www.w3.org/1999/xlink" x="0px" y="0px" viewBox="0 0 256 256" enable-background="new 0 0 256 256" xml:space="preserve">
<metadata> Svg Vector Icons : http://www.onlinewebfonts.com/icon </metadata>
<g><g><g><path fill="#000000" d="M116.2,10.3C76,14.5,40.9,38.5,22.6,74.4c-5.7,11.2-9.7,23.4-11.7,36c-1.2,7.8-1.2,27.4,0,35.1c4.1,26.2,16.5,49.9,35.4,68c19.7,18.7,44.3,29.8,71.8,32.3c29.6,2.6,60.6-7,84-25.9c13.4-10.9,24.4-24.8,32-40.4c15.9-32.7,15.8-70.4-0.2-103.4C214.2,35.4,172.1,9.4,126.8,9.8C123.3,9.9,118.5,10.1,116.2,10.3z M139.3,30.2c29.1,3.5,54.2,19,70.5,43.4c10.9,16.3,16.4,34.4,16.3,54.4c0,22.5-6.7,42.3-20.4,60.2c-1.6,2.1-3.1,3.7-3.3,3.4c-0.2-0.2-0.8-2.2-1.3-4.3c-2.4-10.6-8.4-24-14.2-31.8c-3.3-4.3-11.9-13-14.1-14.1c-1.1-0.6-1.4-0.5-3.4,1.4c-6.3,5.9-16.4,10.1-27.4,11.8c-5.2,0.8-17.5,0.7-22.6-0.2c-10.6-1.8-19.9-6-25.8-11.4l-3.5-3.3l-2.8,1.9c-7.1,4.9-15.6,15.3-19.7,24.4c-3.5,7.6-6.3,17.4-7.5,26.1c-1,7.3-0.6,7-4,3.4c-14.4-15.6-23.4-34.9-26.1-56.1c-0.2-2.3-0.5-7.4-0.5-11.3c0-15.4,3.2-29.6,9.8-43C57.6,47.3,98,25.2,139.3,30.2z"/><path fill="#000000" d="M122.1,51.5c-3.9,1-6.6,2.4-10.1,4.9c-17.7,12.6-21.8,41.4-8.7,60.6c2.8,4.1,8.1,9,12.2,11.1c9,4.7,17.8,4.8,26.8,0.3c5.3-2.7,11.5-8.7,14.6-14.2c7.5-13.3,7.9-29.8,1.2-43.6c-6.3-12.8-16.8-20-29.4-19.9C126.6,50.7,123.6,51.1,122.1,51.5z"/></g></g></g>
</svg>